# xmcd CD database file
#
# Track frame offsets:
#	150
#	29136
#	55265
#	82846
#	109467
#	136257
#	159200
#	187968
#	222541
#	252618
#
# Disc length: 3738 seconds
#
# Revision: 0
# Processed by: cddbd v1.5.2PL0 Copyright (c) Steve Scherf et al.
# Submitted via: CDex 1.70beta2
#
DISCID=8e0e980a
DTITLE=Louis Hayes - the candy man
DYEAR=1999
DGENRE=Jazz
TTITLE0=Pentagon
TTITLE1=Pyramid
TTITLE2=The Candy Man
TTITLE3=Thespian
TTITLE4=Ill Wind
TTITLE5=Round and About
TTITLE6=Reggedy Ann
TTITLE7=The Miracle
TTITLE8=Second's Best
TTITLE9=Safari
EXTD=YEAR: 1999
EXTT0=
EXTT1=
EXTT2=
EXTT3=
EXTT4=
EXTT5=
EXTT6=
EXTT7=
EXTT8=
EXTT9=
PLAYORDER=
